<svg width="24" height="24" viewBox="0 0 24 24" fill="none" xmlns="http://www.w3.org/2000/svg">
<g clip-path="url(#clip0_142_79)">
<path d="M22.4616 4.30767H1.53848C0.688594 4.30767 0 3.61907 0 2.76923C0 1.91938 0.688594 1.23074 1.53848 1.23074H22.4616C23.3114 1.23074 24 1.91934 24 2.76923C24 3.61912 23.3114 4.30767 22.4616 4.30767Z" fill="#3B4A9E"/>
<path d="M13.8462 13.5385H1.53848C0.688594 13.5385 0 12.8498 0 12C0 11.1502 0.688594 10.4615 1.53848 10.4615H13.8462C14.696 10.4615 15.3847 11.1501 15.3847 12C15.3847 12.8499 14.696 13.5385 13.8462 13.5385Z" fill="#3B4A9E"/>
<path d="M22.4616 13.5385H20C19.1502 13.5385 18.4615 12.8499 18.4615 12C18.4615 11.1501 19.1501 10.4615 20 10.4615H22.4616C23.3114 10.4615 24 11.1501 24 12C24 12.8499 23.3114 13.5385 22.4616 13.5385Z" fill="#3B4A9E"/>
<path d="M22.4616 22.7692H1.53848C0.688594 22.7692 0 22.0806 0 21.2307C0 20.3809 0.688594 19.6923 1.53848 19.6923H22.4616C23.3114 19.6923 24 20.3809 24 21.2307C24 22.0806 23.3114 22.7692 22.4616 22.7692Z" fill="#3B4A9E"/>
</g>
<defs>
<clipPath id="clip0_142_79">
<rect width="24" height="24" fill="white"/>
</clipPath>
</defs>
</svg>
