<svg width="122" height="52" viewBox="0 0 122 52" fill="none" xmlns="http://www.w3.org/2000/svg">
<path d="M51.4471 25.9717C41.6039 17.0992 32.7248 17.5071 25.718 25.9717C18.7223 17.5071 9.84323 17.0992 0 25.9717C9.84323 34.8442 18.7223 34.4249 25.718 25.9717C32.7248 34.4589 41.6039 34.8782 51.5032 25.9717H51.4471ZM5.86334 25.9717C10.5271 21.8244 16.4913 21.8244 20.9197 25.9717C16.4913 30.1417 10.5271 30.153 5.86334 25.9943V25.9717ZM30.5275 25.9717C35.0119 21.8244 40.9313 21.8244 45.595 25.9717C40.92 30.153 34.9558 30.1417 30.5163 25.9943L30.5275 25.9717Z" fill="#007D35"/>
<path d="M25.7852 0C17.007 9.94901 17.4106 18.9235 25.7852 25.9943C34.115 18.9235 34.5298 9.94901 25.7852 0ZM25.7852 5.92635C29.8997 10.6402 29.8884 16.6686 25.7852 21.1445C21.6148 16.6686 21.6148 10.6402 25.718 5.92635H25.7852Z" fill="#007D35"/>
<path d="M25.7181 25.9943C17.321 33.0765 16.9175 42.051 25.7181 52.0566C34.5299 42.051 34.1151 33.0765 25.7181 25.9943ZM25.7181 46.0736C21.6148 41.3598 21.6148 35.3314 25.7181 30.8442C29.8213 35.3314 29.8325 41.3598 25.7181 46.0736Z" fill="#007D35"/>
<path d="M42.7698 8.79321C32.6799 9.38245 28.0722 14.4589 28.8345 22.9122C37.1531 23.6487 42.198 19.0028 42.7698 8.79321ZM31.3906 20.2493C31.4111 18.0649 32.2787 15.9757 33.807 14.431C35.3353 12.8863 37.4022 12.0094 39.5634 11.9887C39.543 14.1731 38.6754 16.2623 37.1471 17.807C35.6188 19.3517 33.5519 20.2286 31.3906 20.2493Z" fill="#F7A200"/>
<path d="M22.6462 22.8781C23.4085 14.4362 18.812 9.34839 8.71094 8.75916C9.24906 19.0028 14.294 23.6487 22.6462 22.8781ZM11.8724 11.9886C14.0337 12.0093 16.1006 12.8862 17.6289 14.431C19.1571 15.9757 20.0248 18.0648 20.0452 20.2492C17.884 20.2286 15.8171 19.3516 14.2888 17.8069C12.7605 16.2622 11.8929 14.1731 11.8724 11.9886Z" fill="#F7A200"/>
<path d="M28.801 29.1104C28.0387 37.5523 32.6352 42.7081 42.7362 43.2294C42.1981 32.9971 37.1532 28.3285 28.801 29.1104ZM39.5748 39.9999C37.4088 39.9851 35.3356 39.1088 33.804 37.5607C32.2724 36.0126 31.4054 33.9172 31.3907 31.7279C33.5558 31.7457 35.6273 32.6229 37.1583 34.1704C38.6893 35.7178 39.5572 37.8115 39.5748 39.9999Z" fill="#F7A200"/>
<path d="M8.67725 43.1955C18.7671 42.6176 23.3748 37.5298 22.6125 29.0765C14.2939 28.3286 9.24901 32.9972 8.67725 43.1955ZM20.0452 31.7281C20.0247 33.9125 19.1571 36.0016 17.6288 37.5463C16.1005 39.091 14.0336 39.968 11.8724 39.9887C11.8928 37.8042 12.7605 35.7151 14.2887 34.1704C15.817 32.6257 17.8839 31.7487 20.0452 31.7281Z" fill="#F7A200"/>
<path d="M61.7164 11.7281C62.4003 9.12189 64.7434 8.53265 67.1089 8.53265H71.4924C71.6837 8.53858 71.865 8.62035 71.9972 8.76029C72.1293 8.90022 72.2017 9.0871 72.1987 9.28053V19.5581C72.1987 19.6598 72.1786 19.7604 72.1394 19.854C72.1003 19.9476 72.043 20.0324 71.9708 20.1032C71.8987 20.174 71.8132 20.2294 71.7195 20.2662C71.6257 20.303 71.5256 20.3204 71.4251 20.3174H69.9004C69.799 20.3204 69.6979 20.3027 69.6035 20.2652C69.509 20.2277 69.423 20.1713 69.3507 20.0992C69.2784 20.0272 69.2213 19.9411 69.1828 19.8462C69.1443 19.7512 69.1253 19.6494 69.1269 19.5468V17.4732H63.342L62.7815 19.5468C62.7238 19.7628 62.599 19.9543 62.4254 20.0931C62.2517 20.2319 62.0386 20.3105 61.8173 20.3174H60.2254C60.1317 20.3261 60.0374 20.3104 59.9514 20.2717C59.8655 20.2331 59.7908 20.1727 59.7346 20.0966C59.6783 20.0204 59.6423 19.9308 59.6301 19.8366C59.6179 19.7423 59.6299 19.6464 59.6648 19.5581L61.7164 11.7281ZM63.9586 15.1276H69.1381V10.8556H66.8174C66.3316 10.8387 65.8544 10.9886 65.4636 11.2807C65.0727 11.5729 64.7912 11.9902 64.6649 12.4647L63.9586 15.1276Z" fill="#3E3E3F"/>
<path d="M82.6473 16.1133C82.445 16.1075 82.2527 16.0229 82.1107 15.8772C81.9686 15.7315 81.8877 15.536 81.8849 15.3315V14.7309C81.8877 14.5264 81.9686 14.3308 82.1107 14.1851C82.2527 14.0394 82.445 13.9548 82.6473 13.949H86.7281C86.9323 13.9519 87.1274 14.0353 87.2718 14.1813C87.4163 14.3273 87.4987 14.5244 87.5016 14.7309V15.6374C87.5016 18.6742 85.6967 20.4193 82.1204 20.4193H80.2818C76.7503 20.4193 74.6763 18.5496 74.6763 14.4589C74.6763 10.3683 76.7503 8.4646 80.719 8.4646H82.5352C84.7774 8.4646 87.2214 9.6884 87.2214 11.4901C87.2289 11.606 87.2133 11.7222 87.1753 11.8318C87.1373 11.9414 87.0777 12.0421 87.0002 12.1279C86.9227 12.2136 86.8289 12.2826 86.7243 12.3308C86.6197 12.3789 86.5066 12.4051 86.3917 12.4079H85.4276C85.1847 12.4063 84.9479 12.3309 84.748 12.1915C84.548 12.052 84.3942 11.855 84.3065 11.6261C84.0645 11.3171 83.7469 11.0772 83.3852 10.9302C83.0234 10.7831 82.63 10.734 82.2437 10.7875H80.8199C78.4207 10.7875 77.7705 11.6827 77.7705 14.4249C77.7705 17.1672 78.4207 18.0623 80.3602 18.0623H82.0307C83.8693 18.0623 84.4634 17.2918 84.4859 16.1133H82.6473Z" fill="#3E3E3F"/>
<path d="M93.0511 16.0112V19.5466C93.0511 19.6488 93.031 19.7499 92.992 19.8441C92.953 19.9384 92.8958 20.0238 92.8238 20.0955C92.7519 20.1672 92.6665 20.2238 92.5727 20.2618C92.4789 20.2999 92.3786 20.3187 92.2775 20.3172H90.8089C90.6076 20.3142 90.4154 20.2321 90.273 20.0882C90.1307 19.9444 90.0494 19.7501 90.0465 19.5466V9.34833C90.0387 9.24301 90.0527 9.1372 90.0877 9.03766C90.1226 8.93812 90.1777 8.84705 90.2495 8.77027C90.3212 8.69348 90.408 8.63267 90.5044 8.59172C90.6007 8.55078 90.7044 8.5306 90.8089 8.53247H97.5355C99.9682 8.53247 101.784 9.93757 101.784 12.2718C101.784 14.0849 100.405 14.9347 98.7238 15.2633C99.4077 15.524 99.8449 16.1132 100.574 17.167L102.02 19.5466C102.289 19.9886 102.166 20.3172 101.74 20.3172H99.7777C99.5243 20.2931 99.2797 20.2113 99.0622 20.0778C98.8447 19.9443 98.66 19.7627 98.522 19.5466L97.1431 17.3597C96.9476 16.9685 96.6523 16.6372 96.2876 16.4001C95.923 16.1631 95.5023 16.0288 95.0691 16.0112H93.0511ZM93.0511 10.8554V13.6769H96.5153C97.4458 13.6769 98.6341 13.3483 98.6341 12.2718C98.6341 11.1954 97.4458 10.8554 96.5153 10.8554H93.0511Z" fill="#3E3E3F"/>
<path d="M110.193 8.27191C114.352 8.27191 116.74 10.0396 116.74 14.4249C116.74 18.8102 114.352 20.5779 110.193 20.5779C106.033 20.5779 103.634 18.7988 103.634 14.4249C103.634 10.0509 106.022 8.27191 110.193 8.27191ZM106.706 14.4249C106.706 16.9518 107.693 18.3456 110.193 18.3456C112.693 18.3456 113.668 16.9518 113.668 14.4249C113.668 11.898 112.693 10.4929 110.193 10.4929C107.693 10.4929 106.706 11.898 106.706 14.4249Z" fill="#3E3E3F"/>
<path d="M65.943 23.9999C70.6964 23.9999 72.6696 25.8696 72.6696 29.8923C72.6696 33.915 70.674 35.796 65.943 35.796H61.3913C61.1911 35.796 60.9988 35.7164 60.8562 35.5743C60.7135 35.4322 60.6319 35.2392 60.629 35.0368V24.8385C60.6275 24.7358 60.646 24.6338 60.6836 24.5384C60.7211 24.4429 60.7768 24.3559 60.8476 24.2823C60.9184 24.2086 61.0029 24.1498 61.0961 24.1091C61.1894 24.0684 61.2897 24.0467 61.3913 24.0453L65.943 23.9999ZM63.7008 26.3229V33.473H65.8645C68.8466 33.473 69.6314 32.4192 69.6314 29.8923C69.6314 27.3654 68.8466 26.3229 65.8645 26.3229H63.7008Z" fill="#3E3E3F"/>
<path d="M76.2347 27.1954C76.9185 24.5892 79.2728 23.9999 81.6384 23.9999H86.0219C86.1171 24.0028 86.2108 24.0249 86.2975 24.0648C86.3842 24.1047 86.4621 24.1616 86.5269 24.2323C86.5916 24.3029 86.6417 24.3859 86.6743 24.4764C86.707 24.5668 86.7214 24.663 86.7169 24.7591V35.0368C86.714 35.2392 86.6324 35.4322 86.4897 35.5743C86.3471 35.7164 86.1548 35.796 85.9546 35.796H84.4635C84.3625 35.796 84.2624 35.7757 84.1692 35.7363C84.0759 35.6968 83.9914 35.6391 83.9205 35.5663C83.8495 35.4935 83.7936 35.4073 83.756 35.3125C83.7183 35.2177 83.6997 35.1162 83.7012 35.0141V32.9404H77.9163L77.3558 35.0141C77.297 35.2305 77.1722 35.4225 76.999 35.5629C76.8259 35.7033 76.6133 35.7849 76.3916 35.796H74.7997C74.706 35.8036 74.6119 35.7874 74.526 35.7487C74.4401 35.7099 74.3653 35.65 74.3084 35.5744C74.2514 35.4988 74.2142 35.4099 74.2002 35.316C74.1861 35.222 74.1956 35.126 74.2279 35.0368L76.2347 27.1954ZM78.4769 30.5948H83.6675V26.3229H81.3805C80.8892 26.3105 80.4083 26.4676 80.0171 26.7683C79.6258 27.069 79.3475 27.4954 79.228 27.9773L78.4769 30.5948Z" fill="#3E3E3F"/>
<path d="M89.9346 24.7705C89.9346 24.5661 90.0149 24.3702 90.1579 24.2256C90.3008 24.0811 90.4947 24 90.6969 24H92.2216C92.3232 23.9985 92.4241 24.0172 92.5185 24.0551C92.6129 24.093 92.699 24.1494 92.7719 24.2209C92.8448 24.2925 92.903 24.3778 92.9432 24.4721C92.9835 24.5664 93.0049 24.6678 93.0064 24.7705V34.9688C93.0034 35.1772 92.9194 35.376 92.7726 35.5224C92.6257 35.6687 92.4278 35.7507 92.2216 35.7507H90.6969C90.4967 35.7507 90.3044 35.6711 90.1618 35.529C90.0191 35.3869 89.9375 35.1938 89.9346 34.9915V24.7705Z" fill="#3E3E3F"/>
<path d="M99.2394 31.4787V35.0141C99.2394 35.2215 99.1579 35.4204 99.0128 35.567C98.8677 35.7136 98.671 35.796 98.4658 35.796H96.9411C96.736 35.796 96.5392 35.7136 96.3941 35.567C96.2491 35.4204 96.1676 35.2215 96.1676 35.0141V24.8158C96.1661 24.7152 96.1844 24.6152 96.2215 24.5218C96.2586 24.4284 96.3137 24.3433 96.3836 24.2716C96.4535 24.1999 96.5368 24.143 96.6286 24.1041C96.7205 24.0653 96.8191 24.0453 96.9187 24.0453H103.645C106.078 24.0453 107.894 25.4617 107.894 27.7847C107.894 29.609 106.515 30.4476 104.834 30.7875C105.518 31.0368 105.955 31.626 106.683 32.6912L108.163 35.0595C108.432 35.5014 108.309 35.8413 107.883 35.8413H105.921C105.667 35.8152 105.422 35.7313 105.205 35.5959C104.987 35.4605 104.803 35.2771 104.665 35.0595L103.287 32.8612C103.092 32.4716 102.798 32.1414 102.436 31.9044C102.073 31.6675 101.655 31.5323 101.224 31.5127L99.2394 31.4787ZM99.2394 26.3229V29.1558H102.704C103.634 29.1558 104.822 28.8158 104.822 27.7393C104.822 26.6629 103.634 26.3229 102.704 26.3229H99.2394Z" fill="#3E3E3F"/>
<path d="M113.455 31.5807L109.105 24.7819C108.858 24.3966 108.971 24.0113 109.385 24.0113H110.989C111.271 24.0055 111.551 24.0733 111.8 24.2082C112.05 24.3432 112.26 24.5407 112.412 24.7819L115.047 28.8952L117.682 24.7819C117.832 24.5424 118.042 24.3459 118.289 24.211C118.536 24.0762 118.813 24.0074 119.094 24.0113H120.641C121.056 24.0113 121.179 24.3966 120.933 24.7819L116.583 31.5807V35.0368C116.577 35.2402 116.493 35.4333 116.349 35.5751C116.204 35.7169 116.011 35.7961 115.809 35.796H114.273C114.073 35.7961 113.881 35.7164 113.738 35.5744C113.596 35.4323 113.514 35.2392 113.511 35.0368L113.455 31.5807Z" fill="#3E3E3F"/>
<path d="M60.6514 40.3287H61.3913L63.8241 43.5015V40.3287H64.6088V44.8613H63.9025L61.4361 41.6545V44.918H60.6514V40.3287Z" fill="#8C8F92"/>
<path d="M67.3779 40.2946H68.1178L70.1133 44.9179H69.2725L68.8129 43.7847H66.6716L66.2007 44.9179H65.3823L67.3779 40.2946ZM68.499 43.0935L67.7142 41.2578L66.9631 43.0595L68.499 43.0935Z" fill="#8C8F92"/>
<path d="M71.4252 41.0766H69.9902V40.3287H73.6674V41.0766H72.2324V44.918H71.4252V41.0766Z" fill="#8C8F92"/>
<path d="M74.4409 42.969V40.3287H75.2369V42.935C75.2369 43.7848 75.6741 44.2494 76.358 44.2494C77.0419 44.2494 77.4791 43.8188 77.4791 42.969V40.3287H78.2751V42.935C78.3097 43.2057 78.2838 43.4809 78.1992 43.7402C78.1145 43.9995 77.9734 44.2363 77.7862 44.4332C77.599 44.63 77.3705 44.7819 77.1175 44.8775C76.8645 44.9732 76.5934 45.0103 76.3244 44.986C76.0634 45.0009 75.8024 44.958 75.5595 44.8603C75.3167 44.7626 75.0979 44.6124 74.9185 44.4203C74.7391 44.2281 74.6034 43.9987 74.5209 43.748C74.4384 43.4973 74.4111 43.2314 74.4409 42.969Z" fill="#8C8F92"/>
<path d="M79.4184 40.3287H81.4476C82.5014 40.3287 83.1293 40.9066 83.1293 41.7905C83.1372 42.1197 83.0287 42.441 82.8232 42.6965C82.6177 42.952 82.3286 43.125 82.0082 43.1843L83.2414 44.918H82.2996L81.1785 43.3202H80.192V44.918H79.396L79.4184 40.3287ZM81.3803 42.595C81.9521 42.595 82.3221 42.2891 82.3221 41.8132C82.3221 41.3372 81.9633 41.0539 81.3803 41.0539H80.2592V42.6064L81.3803 42.595Z" fill="#8C8F92"/>
<path d="M84.082 40.3287H87.4453V41.0539H84.9004V42.2437H87.1426V42.969H84.9004V44.1928H87.5014V44.918H84.082V40.3287Z" fill="#8C8F92"/>
<path d="M88.1182 41.8471C88.4881 41.7792 88.6787 41.5979 88.6787 41.3032C88.6787 41.3032 88.6787 41.3032 88.6787 41.2239H88.3424V40.3287H89.2056V41.0993C89.2314 41.2431 89.2245 41.391 89.1854 41.5317C89.1463 41.6724 89.076 41.8023 88.9798 41.9115C88.8837 42.0207 88.7642 42.1063 88.6305 42.1619C88.4967 42.2175 88.3522 42.2416 88.2079 42.2324L88.1182 41.8471Z" fill="#8C8F92"/>
<path d="M89.8896 44.2493L90.3717 43.6714C90.7544 44.0529 91.2692 44.2683 91.8067 44.2719C92.3 44.2719 92.6027 44.034 92.6027 43.6827C92.6027 43.3314 92.4233 43.1728 91.5825 42.9688C90.7417 42.7648 90.069 42.4476 90.069 41.5977C90.077 41.4048 90.1243 41.2157 90.2078 41.0421C90.2913 40.8685 90.4094 40.7141 90.5545 40.5886C90.6997 40.4632 90.8689 40.3693 91.0515 40.3129C91.2342 40.2564 91.4264 40.2386 91.6161 40.2606C92.2161 40.248 92.8008 40.453 93.2641 40.8385L92.8381 41.4504C92.4893 41.1602 92.0563 40.9931 91.6049 40.9745C91.1453 40.9745 90.865 41.2238 90.865 41.541C90.865 41.8583 91.078 42.051 91.9861 42.2549C92.8942 42.4589 93.4435 42.8442 93.4435 43.6147C93.4435 44.3852 92.7821 44.9858 91.8291 44.9858C91.1137 44.9974 90.4205 44.7342 89.8896 44.2493Z" fill="#8C8F92"/>
<path d="M96.291 40.3286H98.3202C98.5351 40.3143 98.7507 40.3429 98.9546 40.4129C99.1585 40.4829 99.3468 40.5929 99.5086 40.7366C99.609 40.8368 99.6878 40.9571 99.7399 41.0897C99.792 41.2224 99.8163 41.3645 99.8113 41.5071C99.8193 41.7225 99.7626 41.9353 99.6485 42.1173C99.5344 42.2994 99.3683 42.4422 99.1722 42.5269C99.4293 42.5799 99.6598 42.7223 99.8237 42.9293C99.9876 43.1364 100.074 43.395 100.069 43.6601C100.069 44.4759 99.3965 44.9179 98.3875 44.9179H96.291V40.3286ZM98.1632 42.2663C98.679 42.2663 99.0153 42.0623 99.0153 41.6317C99.0153 41.2011 98.735 41.0425 98.2193 41.0425H97.0982V42.2663H98.1632ZM98.3987 44.1926C98.9368 44.1926 99.2731 43.9773 99.2731 43.5468C99.2731 43.1162 98.9704 42.9349 98.3426 42.9349H97.0758V44.1926H98.3987Z" fill="#8C8F92"/>
<path d="M100.966 40.3287H104.329V41.0539H101.762V42.2437H104.004V42.969H101.762V44.1928H104.363V44.918H100.999L100.966 40.3287Z" fill="#8C8F92"/>
<path d="M105.013 44.2493L105.484 43.6714C105.868 44.0509 106.382 44.266 106.919 44.2719C107.412 44.2719 107.726 44.034 107.726 43.6827C107.726 43.3314 107.547 43.1728 106.695 42.9688C105.843 42.7648 105.193 42.4476 105.193 41.5977C105.201 41.4048 105.248 41.2157 105.331 41.0421C105.415 40.8685 105.533 40.7141 105.678 40.5886C105.823 40.4632 105.992 40.3693 106.175 40.3129C106.358 40.2564 106.55 40.2386 106.74 40.2606C107.34 40.248 107.924 40.453 108.388 40.8385L107.962 41.4504C107.612 41.1617 107.18 40.9948 106.728 40.9745C106.258 40.9745 105.989 41.2238 105.989 41.541C105.989 41.8583 106.19 42.051 107.11 42.2549C108.029 42.4589 108.567 42.8442 108.567 43.6147C108.567 44.3852 107.894 44.9858 106.941 44.9858C106.229 44.9968 105.54 44.7335 105.013 44.2493Z" fill="#8C8F92"/>
<path d="M110.484 41.0766H109.038V40.3287H112.726V41.0766H111.28V44.918H110.484V41.0766Z" fill="#8C8F92"/>
</svg>
