<svg width="19" height="14" viewBox="0 0 19 14" fill="none" xmlns="http://www.w3.org/2000/svg">
<path d="M18.45 0.484999C18.51 0.904999 18.555 1.34 18.585 1.79C18.615 2.24 18.63 2.57 18.63 2.78C18.63 4.79 18.27 6.71 17.55 8.54C16.83 10.34 15.945 11.87 14.895 13.13L10.35 12.095C10.92 10.805 11.37 9.35 11.7 7.73C12.06 6.08 12.24 4.52 12.24 3.05C12.24 2.99 12.24 2.87 12.24 2.69C12.24 2.48 12.225 2.255 12.195 2.015C12.195 1.745 12.18 1.475 12.15 1.205C12.15 0.934998 12.135 0.694998 12.105 0.484999H18.45ZM8.775 0.484999C8.835 0.904999 8.88 1.34 8.91 1.79C8.94 2.24 8.955 2.57 8.955 2.78C8.955 4.79 8.595 6.71 7.875 8.54C7.155 10.34 6.27 11.87 5.22 13.13L0.675 12.095C1.245 10.805 1.695 9.35 2.025 7.73C2.385 6.08 2.565 4.52 2.565 3.05C2.565 2.99 2.565 2.87 2.565 2.69C2.565 2.48 2.55 2.255 2.52 2.015C2.52 1.745 2.505 1.475 2.475 1.205C2.475 0.934998 2.46 0.694998 2.43 0.484999H8.775Z" fill="#3B4A9E"/>
</svg>
