<svg width="402" height="180" viewBox="0 0 402 180" fill="none" xmlns="http://www.w3.org/2000/svg">
<g opacity="0.3">
<path d="M0 5.9331C0 3.17168 2.23858 0.933105 5 0.933105H397C399.761 0.933105 402 3.17168 402 5.93311V120.857C402 123.619 399.761 125.857 397 125.857H5C2.23858 125.857 0 123.619 0 120.857V5.9331Z" fill="#3B4A9E"/>
<path d="M106.417 71.8742L82.3664 38.714H73.9312V85.6004H82.227V52.4401L106.278 85.6004H114.713V38.714H106.417V71.8742Z" fill="white"/>
<path d="M166.047 79.4848C170.857 74.7961 173.297 69.0203 173.297 62.1572C173.297 55.2941 170.857 49.5182 166.047 44.8975C161.236 40.2089 155.171 37.8986 147.991 37.8986C140.811 37.8986 134.745 40.2089 129.935 44.8975C125.125 49.5182 122.685 55.2941 122.685 62.1572C122.685 69.0203 125.125 74.7961 129.935 79.4848C134.745 84.1055 140.811 86.4158 147.991 86.4158C155.171 86.4158 161.236 84.1055 166.047 79.4848ZM147.991 78.6014C143.25 78.6014 139.277 77.0385 136.07 73.9128C132.863 70.719 131.26 66.8458 131.26 62.1572C131.26 57.4685 132.863 53.5953 136.07 50.4696C139.277 47.2758 143.25 45.713 147.991 45.713C152.801 45.713 156.775 47.2758 159.982 50.4696C163.188 53.5953 164.792 57.4685 164.792 62.1572C164.792 66.8458 163.188 70.719 159.982 73.9128C156.775 77.0385 152.801 78.6014 147.991 78.6014Z" fill="white"/>
<path d="M197.954 74.932L183.454 38.714H174.112L193.562 85.6004H202.137L221.517 38.714H212.454L197.954 74.932Z" fill="white"/>
<path d="M246.543 86.4158C252.19 86.4158 256.93 84.6491 260.695 81.0476C264.459 77.4462 266.341 72.8935 266.341 67.5253V38.714H258.046V67.3894C258.046 70.5831 256.93 73.3012 254.769 75.4077C252.608 77.5142 249.819 78.6014 246.543 78.6014C243.266 78.6014 240.548 77.5142 238.317 75.4077C236.156 73.2332 235.04 70.5831 235.04 67.3894V38.714H226.814V67.5253C226.814 72.8935 228.696 77.4462 232.461 81.0476C236.225 84.6491 240.896 86.4158 246.543 86.4158Z" fill="white"/>
<path d="M302.066 73.1653L286.66 38.714H275.854V85.6004H284.15V52.4401L298.999 85.6004H304.855L319.773 52.3042V85.6004H328.069V38.714H317.403L302.066 73.1653Z" fill="white"/>
</g>
<path opacity="0.3" d="M1.962 142.47V147.28H8.548V168H13.654V147.28H20.24V142.47H1.962ZM40.2162 152.756H28.8942V142.47H23.7882V168H28.8942V157.566H40.2162V168H45.3222V142.47H40.2162V152.756ZM55.5964 157.566H63.8474V152.756H55.5964V147.28H65.0684V142.47H50.4904V168H65.2534V163.19H55.5964V157.566ZM104.193 161.118L98.014 142.47H93.352L87.247 161.118L81.142 142.47H75.518L84.583 168H89.726L95.646 150.129L101.529 168H106.672L115.774 142.47H110.224L104.193 161.118ZM139.024 168L129.219 142.47H123.188L113.346 168H118.859L120.672 163.042H131.624L133.437 168H139.024ZM126.148 148.094L129.885 158.343H122.374L126.148 148.094ZM147.922 153.866L141.188 142.47H135.342L145.332 159.046V168H150.401V159.046L160.391 142.47H154.656L147.922 153.866ZM169.763 142.47V147.28H176.349V168H181.455V147.28H188.041V142.47H169.763ZM201.992 168.444C205.803 168.444 209.022 167.186 211.575 164.67C214.165 162.117 215.46 158.972 215.46 155.235C215.46 151.498 214.165 148.353 211.575 145.837C209.022 143.284 205.803 142.026 201.992 142.026C198.144 142.026 194.925 143.284 192.372 145.837C189.819 148.353 188.524 151.498 188.524 155.235C188.524 158.972 189.819 162.117 192.372 164.67C194.925 167.186 198.144 168.444 201.992 168.444ZM196.109 161.155C194.518 159.564 193.741 157.603 193.741 155.235C193.741 152.867 194.518 150.906 196.109 149.315C197.7 147.724 199.661 146.947 201.992 146.947C204.323 146.947 206.284 147.724 207.838 149.315C209.429 150.906 210.206 152.867 210.206 155.235C210.206 157.603 209.429 159.564 207.838 161.155C206.284 162.746 204.323 163.523 201.992 163.523C199.661 163.523 197.7 162.746 196.109 161.155ZM251.253 168L241.448 142.47H235.417L225.575 168H231.088L232.901 163.042H243.853L245.666 168H251.253ZM238.377 148.094L242.114 158.343H234.603L238.377 148.094ZM254.243 142.47V168H264.233C267.97 168 271.041 166.779 273.52 164.374C275.999 161.932 277.257 158.898 277.257 155.235C277.257 151.572 275.999 148.538 273.52 146.133C271.041 143.691 267.97 142.47 264.233 142.47H254.243ZM259.349 163.19V147.28H264.122C266.379 147.28 268.229 148.057 269.746 149.574C271.263 151.091 272.003 152.978 272.003 155.235C272.003 157.492 271.263 159.416 269.746 160.933C268.229 162.45 266.379 163.19 264.122 163.19H259.349ZM290.228 161.229L283.087 142.47H277.389L287.527 168H292.781L302.919 142.47H297.332L290.228 161.229ZM326.048 168L316.243 142.47H310.212L300.37 168H305.883L307.696 163.042H318.648L320.461 168H326.048ZM313.172 148.094L316.909 158.343H309.398L313.172 148.094ZM345.836 159.231L334.218 142.47H329.038V168H334.144V151.239L345.762 168H350.942V142.47H345.836V159.231ZM368.348 168.444C371.604 168.444 374.453 167.482 376.858 165.595C379.263 163.708 380.817 161.229 381.483 158.232H376.044C374.86 161.377 371.9 163.523 368.348 163.523C366.017 163.523 364.056 162.746 362.465 161.155C360.874 159.564 360.097 157.603 360.097 155.235C360.097 152.867 360.874 150.906 362.465 149.315C364.056 147.724 366.017 146.947 368.348 146.947C371.9 146.947 374.86 149.093 376.044 152.238H381.483C380.817 149.241 379.263 146.762 376.858 144.875C374.453 142.988 371.604 142.026 368.348 142.026C364.5 142.026 361.281 143.284 358.728 145.837C356.175 148.353 354.88 151.498 354.88 155.235C354.88 158.972 356.175 162.117 358.728 164.67C361.281 167.186 364.5 168.444 368.348 168.444ZM390.367 157.566H398.618V152.756H390.367V147.28H399.839V142.47H385.261V168H400.024V163.19H390.367V157.566Z" fill="#3B4A9E"/>
</svg>
