<svg width="56" height="56" viewBox="0 0 56 56" fill="none" xmlns="http://www.w3.org/2000/svg">
<path d="M49.9844 36.2828C47.2361 36.2828 44.9142 38.1359 44.198 40.6578H38.3906V34.2533H44.3202C50.7605 34.2533 56 29.0138 56 22.5735C56 17.4098 52.5752 12.8736 47.7133 11.3962C46.2436 5.51134 40.9315 1.29067 34.7793 1.29067C32.3944 1.29067 30.1097 1.90568 28.0935 3.0807C25.9582 1.12792 23.1583 0.0308838 20.2164 0.0308838C13.9063 0.0308838 8.7488 5.06115 8.54295 11.322C3.54878 12.7179 0 17.2906 0 22.5735C0 29.0138 5.2395 34.2533 11.6798 34.2533H17.6094V40.6578H11.802C11.0859 38.1359 8.76389 36.2828 6.01562 36.2828C2.69861 36.2828 0 38.9814 0 42.2984C0 45.6154 2.69861 48.314 6.01562 48.314C8.76389 48.314 11.0858 46.4609 11.802 43.939H19.25C20.1561 43.939 20.8906 43.2045 20.8906 42.2984V34.2533H26.3594V44.1683C23.8375 44.8844 21.9844 47.2064 21.9844 49.9547C21.9844 53.2717 24.683 55.9703 28 55.9703C31.317 55.9703 34.0156 53.2717 34.0156 49.9547C34.0156 47.2064 32.1625 44.8845 29.6406 44.1683V34.2533H35.1094V42.2984C35.1094 43.2045 35.8439 43.939 36.75 43.939H44.198C44.9141 46.4609 47.2361 48.314 49.9844 48.314C53.3014 48.314 56 45.6154 56 42.2984C56 38.9814 53.3014 36.2828 49.9844 36.2828ZM6.01562 45.0328C4.50789 45.0328 3.28125 43.8062 3.28125 42.2984C3.28125 40.7907 4.50789 39.564 6.01562 39.564C7.52336 39.564 8.75 40.7907 8.75 42.2984C8.75 43.8062 7.52336 45.0328 6.01562 45.0328ZM30.7344 49.9547C30.7344 51.4624 29.5077 52.689 28 52.689C26.4923 52.689 25.2656 51.4624 25.2656 49.9547C25.2656 48.4469 26.4923 47.2203 28 47.2203C29.5077 47.2203 30.7344 48.4469 30.7344 49.9547ZM11.6798 30.9721C7.04889 30.9721 3.28125 27.2046 3.28125 22.5735C3.28125 18.4344 6.36639 14.8619 10.4573 14.2636C11.3206 14.1374 11.934 13.3576 11.8535 12.4889C11.8298 12.2327 11.8177 11.9708 11.8177 11.7106C11.8177 7.07978 15.5854 3.31224 20.2163 3.31224C22.6871 3.31224 25.0171 4.38631 26.6087 6.25903C27.1675 6.91648 28.14 7.0287 28.834 6.51595C30.5547 5.24413 32.6105 4.57192 34.7792 4.57192C39.7697 4.57192 43.92 8.23368 44.6958 12.9971C44.8055 13.6706 45.3207 14.2059 45.9896 14.3413C49.8887 15.1307 52.7186 18.5927 52.7186 22.5735C52.7186 27.2046 48.951 30.9721 44.3201 30.9721H11.6798ZM49.9844 45.0328C48.4766 45.0328 47.25 43.8062 47.25 42.2984C47.25 40.7907 48.4766 39.564 49.9844 39.564C51.4921 39.564 52.7188 40.7907 52.7188 42.2984C52.7188 43.8062 51.4921 45.0328 49.9844 45.0328Z" fill="#3B4A9E"/>
</svg>
