<svg width="20" height="20" viewBox="0 0 20 20" fill="none" xmlns="http://www.w3.org/2000/svg">
<path d="M18.47 -1.27571e-05H1.53C1.33958 -0.00265738 1.1505 0.0322347 0.973563 0.102671C0.796628 0.173107 0.635301 0.277708 0.498795 0.410499C0.362289 0.543291 0.253279 0.701672 0.177989 0.876597C0.1027 1.05152 0.062606 1.23957 0.0599976 1.42999V18.57C0.062606 18.7604 0.1027 18.9485 0.177989 19.1234C0.253279 19.2983 0.362289 19.4567 0.498795 19.5895C0.635301 19.7223 0.796628 19.8269 0.973563 19.8973C1.1505 19.9677 1.33958 20.0026 1.53 20H18.47C18.6604 20.0026 18.8495 19.9677 19.0264 19.8973C19.2034 19.8269 19.3647 19.7223 19.5012 19.5895C19.6377 19.4567 19.7467 19.2983 19.822 19.1234C19.8973 18.9485 19.9374 18.7604 19.94 18.57V1.42999C19.9374 1.23957 19.8973 1.05152 19.822 0.876597C19.7467 0.701672 19.6377 0.543291 19.5012 0.410499C19.3647 0.277708 19.2034 0.173107 19.0264 0.102671C18.8495 0.0322347 18.6604 -0.00265738 18.47 -1.27571e-05ZM6.09 16.74H3.09V7.73999H6.09V16.74ZM4.59 6.47999C4.17626 6.47999 3.77947 6.31563 3.48691 6.02307C3.19435 5.73052 3.03 5.33372 3.03 4.91999C3.03 4.50625 3.19435 4.10946 3.48691 3.8169C3.77947 3.52434 4.17626 3.35999 4.59 3.35999C4.80969 3.33507 5.03217 3.35684 5.24287 3.42387C5.45357 3.4909 5.64774 3.60168 5.81265 3.74895C5.97757 3.89622 6.10952 4.07667 6.19987 4.27847C6.29021 4.48027 6.33692 4.69888 6.33692 4.91999C6.33692 5.14109 6.29021 5.3597 6.19987 5.5615C6.10952 5.76331 5.97757 5.94375 5.81265 6.09103C5.64774 6.2383 5.45357 6.34907 5.24287 6.4161C5.03217 6.48313 4.80969 6.5049 4.59 6.47999ZM16.91 16.74H13.91V11.91C13.91 10.7 13.48 9.90999 12.39 9.90999C12.0527 9.91246 11.7242 10.0183 11.4488 10.2132C11.1735 10.4081 10.9645 10.6827 10.85 11C10.7717 11.235 10.7378 11.4826 10.75 11.73V16.73H7.75C7.75 16.73 7.75 8.54999 7.75 7.72999H10.75V8.99999C11.0225 8.52709 11.4189 8.13751 11.8964 7.87319C12.374 7.60887 12.9146 7.47984 13.46 7.49999C15.46 7.49999 16.91 8.78999 16.91 11.56V16.74Z" fill="#3B4A9E"/>
</svg>
