<svg width="174" height="55" viewBox="0 0 174 55" fill="none" xmlns="http://www.w3.org/2000/svg">
<path d="M0 5C0 2.23858 2.23858 0 5 0H169C171.761 0 174 2.23858 174 5V49.0717C174 51.8331 171.761 54.0717 169 54.0717H5C2.23858 54.0717 0 51.8331 0 49.0717V5Z" fill="#3B4A9E"/>
<path d="M46.0612 30.7059L35.6511 16.3529H32V36.6471H35.5907V22.2941L46.0009 36.6471H49.652V16.3529H46.0612V30.7059Z" fill="white"/>
<path d="M71.8709 34C73.9529 31.9706 75.009 29.4706 75.009 26.5C75.009 23.5294 73.9529 21.0294 71.8709 19.0294C69.7889 17 67.1637 16 64.0557 16C60.9478 16 58.3226 17 56.2406 19.0294C54.1586 21.0294 53.1025 23.5294 53.1025 26.5C53.1025 29.4706 54.1586 31.9706 56.2406 34C58.3226 36 60.9478 37 64.0557 37C67.1637 37 69.7889 36 71.8709 34ZM64.0557 33.6176C62.0039 33.6176 60.2839 32.9412 58.8959 31.5882C57.5079 30.2059 56.8139 28.5294 56.8139 26.5C56.8139 24.4706 57.5079 22.7941 58.8959 21.4412C60.2839 20.0588 62.0039 19.3824 64.0557 19.3824C66.1378 19.3824 67.8577 20.0588 69.2457 21.4412C70.6337 22.7941 71.3277 24.4706 71.3277 26.5C71.3277 28.5294 70.6337 30.2059 69.2457 31.5882C67.8577 32.9412 66.1378 33.6176 64.0557 33.6176Z" fill="white"/>
<path d="M85.6815 32.0294L79.4053 16.3529H75.3619L83.7805 36.6471H87.492L95.8804 16.3529H91.9578L85.6815 32.0294Z" fill="white"/>
<path d="M106.713 37C109.157 37 111.209 36.2353 112.838 34.6765C114.467 33.1176 115.282 31.1471 115.282 28.8235V16.3529H111.691V28.7647C111.691 30.1471 111.209 31.3235 110.273 32.2353C109.338 33.1471 108.131 33.6176 106.713 33.6176C105.294 33.6176 104.118 33.1471 103.152 32.2353C102.217 31.2941 101.734 30.1471 101.734 28.7647V16.3529H98.1732V28.8235C98.1732 31.1471 98.9879 33.1176 100.617 34.6765C102.247 36.2353 104.268 37 106.713 37Z" fill="white"/>
<path d="M130.745 31.2647L124.076 16.3529H119.399V36.6471H122.99V22.2941L129.417 36.6471H131.952L138.409 22.2353V36.6471H142V16.3529H137.383L130.745 31.2647Z" fill="white"/>
</svg>
