<svg width="24" height="16" viewBox="0 0 24 16" fill="none" xmlns="http://www.w3.org/2000/svg">
<path d="M23 5.71001C23.0495 4.27867 22.7365 2.85803 22.09 1.58001C21.6514 1.05561 21.0427 0.701725 20.37 0.580015C17.5875 0.32754 14.7936 0.224059 12 0.270015C9.21667 0.221973 6.43274 0.322115 3.66003 0.570015C3.11185 0.669731 2.60454 0.926857 2.20003 1.31001C1.30003 2.14001 1.20003 3.56001 1.10003 4.76002C0.954939 6.91758 0.954939 9.08245 1.10003 11.24C1.12896 11.9154 1.22952 12.5858 1.40003 13.24C1.5206 13.7451 1.76455 14.2124 2.11003 14.6C2.51729 15.0035 3.03641 15.2752 3.60003 15.38C5.75594 15.6461 7.92824 15.7564 10.1 15.71C13.6 15.76 16.67 15.71 20.3 15.43C20.8775 15.3317 21.4112 15.0596 21.83 14.65C22.11 14.3699 22.3191 14.0271 22.44 13.65C22.7977 12.5526 22.9733 11.4041 22.96 10.25C23 9.69001 23 6.31001 23 5.71001ZM9.74003 10.85V4.66001L15.66 7.77002C14 8.69001 11.81 9.73001 9.74003 10.85Z" fill="#3B4A9E"/>
</svg>
